<svg width="50" height="50" viewBox="0 0 50 50" fill="none" xmlns="http://www.w3.org/2000/svg">
<path fill-rule="evenodd" clip-rule="evenodd" d="M27.4056 7.00067C26.0074 6.27094 24.1128 6.25968 22.7035 6.98753C17.3015 9.77741 12.4018 12.9762 8.10806 16.5242C7.44409 17.0728 6.97288 17.8701 6.98092 18.8085C6.98893 19.7431 7.46972 20.5297 8.12966 21.0693C12.3877 24.5509 17.2915 27.7526 22.5946 30.5204C23.9927 31.2501 25.8873 31.2614 27.2966 30.5335C32.6986 27.7437 37.5984 24.5448 41.8921 20.9969C42.556 20.4483 43.0272 19.651 43.0192 18.7126C43.0112 17.778 42.5304 16.9914 41.8705 16.4518C37.6124 12.9702 32.7087 9.76846 27.4056 7.00067ZM24.1375 9.7641C24.6368 9.50624 25.457 9.50868 25.9596 9.77105C31.0208 12.4125 35.6841 15.4515 39.7242 18.7339C35.66 22.0692 31.0105 25.0983 25.8627 27.757C25.3634 28.0148 24.5432 28.0124 24.0405 27.75C18.9794 25.1085 14.316 22.0696 10.276 18.7871C14.3401 15.4519 18.9896 12.4227 24.1375 9.7641Z" fill="#7000FF"/>
<path d="M44.1605 26.4543C44.6175 27.1863 44.3946 28.1502 43.6626 28.6072L30.9392 36.5507C29.2127 37.6287 27.0706 38.127 24.9999 38.1272C22.9292 38.1273 20.787 37.6292 19.0602 36.5515L6.47617 28.6978C5.7441 28.241 5.52101 27.2771 5.9779 26.545C6.43478 25.813 7.39862 25.5899 8.13069 26.0468L20.7147 33.9004C21.8484 34.6079 23.3883 35.0023 24.9997 35.0022C26.611 35.0021 28.1509 34.6075 29.2843 33.8999L42.0077 25.9564C42.7397 25.4994 43.7035 25.7223 44.1605 26.4543Z" fill="#7000FF"/>
<path d="M44.1604 34.2765C44.6175 35.0085 44.3947 35.9724 43.6628 36.4295L32.6442 43.3104C30.4408 44.6864 27.6846 45.3338 24.9998 45.334C22.315 45.3341 19.5586 44.6871 17.3549 43.3114L6.47601 36.5201C5.74399 36.0631 5.52102 35.0992 5.978 34.3672C6.43497 33.6352 7.39884 33.4122 8.13085 33.8692L19.0097 40.6605C20.6202 41.6658 22.7742 42.2091 24.9996 42.209C27.225 42.2088 29.3788 41.6653 30.9889 40.6598L42.0075 33.7789C42.7394 33.3218 43.7034 33.5446 44.1604 34.2765Z" fill="#7000FF"/>
</svg>
