<svg width="50" height="50" viewBox="0 0 50 50" fill="none" xmlns="http://www.w3.org/2000/svg">
<path fill-rule="evenodd" clip-rule="evenodd" d="M16.1459 15.625C16.1459 10.735 20.1101 6.77083 25.0001 6.77083C29.8901 6.77083 33.8542 10.735 33.8542 15.625C33.8542 20.515 29.8901 24.4792 25.0001 24.4792C20.1101 24.4792 16.1459 20.515 16.1459 15.625ZM25.0001 9.89583C21.836 9.89583 19.2709 12.4609 19.2709 15.625C19.2709 18.7891 21.836 21.3542 25.0001 21.3542C28.1642 21.3542 30.7292 18.7891 30.7292 15.625C30.7292 12.4609 28.1642 9.89583 25.0001 9.89583Z" fill="#7000FF"/>
<path fill-rule="evenodd" clip-rule="evenodd" d="M16.6667 30.7292C14.0779 30.7292 11.9792 32.8278 11.9792 35.4167V37.8923C11.9792 37.9299 12.0066 37.9621 12.0438 37.9682C20.6245 39.3691 29.3757 39.3691 37.9564 37.9682C37.9936 37.9621 38.0209 37.9299 38.0209 37.8923V35.4167C38.0209 32.8278 35.9223 30.7292 33.3334 30.7292H32.6233C32.5684 30.7292 32.5138 30.7378 32.4616 30.7549L30.6584 31.3437C26.9817 32.5442 23.0184 32.5442 19.3417 31.3437L17.5386 30.7549C17.4864 30.7378 17.4318 30.7292 17.3769 30.7292H16.6667ZM8.85425 35.4167C8.85425 31.1019 12.352 27.6042 16.6667 27.6042H17.3769C17.7613 27.6042 18.1432 27.6649 18.5086 27.7843L20.3117 28.373C23.3581 29.3678 26.642 29.3678 29.6884 28.373L31.4916 27.7843C31.857 27.6649 32.2389 27.6042 32.6233 27.6042H33.3334C37.6481 27.6042 41.1459 31.1019 41.1459 35.4167V37.8923C41.1459 39.4615 40.0087 40.7995 38.4599 41.0523C29.5457 42.5077 20.4545 42.5077 11.5402 41.0523C9.99151 40.7995 8.85425 39.4615 8.85425 37.8923V35.4167Z" fill="#7000FF"/>
</svg>
